<svg xmlns="http://www.w3.org/2000/svg" xmlns:xlink="http://www.w3.org/1999/xlink" width="233.9" height="49.168" viewBox="0 0 233.9 49.168"><defs><style>.a{stroke:#707070;fill:url(#a);}.b{fill:#ff978a;}.b,.c,.d{font-size:40px;font-family:Montserrat-Regular, Montserrat;}.c{fill:#dc3b27;}.d{fill:#63ffac;}</style><linearGradient id="a" x1="1.123" x2="0.5" y2="1" gradientUnits="objectBoundingBox"><stop offset="0" stop-color="#264b6f"/><stop offset="1" stop-color="#a9b9c8"/></linearGradient></defs><g transform="translate(0.481)"><path class="a" d="M1388.289-480.075C1372.3-450.816,1442-484.882,1442-484.882s-2.821,20.795-10.831,18.412,14.576,10.173-7.979,13.564c-8.977,1.35-22.362-6.27-27.995,4.848-3.148,6.215-5.444,13.961-19.505,3.7s-12.777-5.415-16.661-8.55c-14.63-11.808,11.421-2.948,12.346-17.462S1388.289-480.075,1388.289-480.075Z" transform="translate(-1354.581 488.049)"/><text class="b" transform="translate(97.419 39)"><tspan x="0" y="0">Jo</tspan></text><text class="c" transform="translate(184.419 39)"><tspan x="0" y="0">fix</tspan></text><text class="d" transform="translate(140.419 39)"><tspan x="0" y="0">ur</tspan></text></g></svg>